<svg width="20" height="20" viewBox="0 0 20 20" fill="none" xmlns="http://www.w3.org/2000/svg">
<path d="M14.4176 8.75H19.3326C19.392 8.75002 19.4501 8.76696 19.5002 8.79883C19.5503 8.83071 19.5903 8.8762 19.6155 8.92997C19.6407 8.98375 19.65 9.04358 19.6424 9.10247C19.6348 9.16137 19.6106 9.21687 19.5726 9.2625L17.1151 12.2125C17.0858 12.2477 17.0491 12.276 17.0076 12.2954C16.9661 12.3148 16.9209 12.3249 16.8751 12.3249C16.8293 12.3249 16.7841 12.3148 16.7426 12.2954C16.7011 12.276 16.6644 12.2477 16.6351 12.2125L14.1776 9.2625C14.1396 9.21687 14.1154 9.16137 14.1078 9.10247C14.1002 9.04358 14.1095 8.98375 14.1347 8.92997C14.1599 8.8762 14.1999 8.83071 14.25 8.79883C14.3001 8.76696 14.3582 8.75002 14.4176 8.75ZM0.667608 11.25H5.58261C5.64199 11.25 5.70013 11.233 5.75023 11.2012C5.80033 11.1693 5.84031 11.1238 5.8655 11.07C5.89068 11.0163 5.90002 10.9564 5.89242 10.8975C5.88483 10.8386 5.86061 10.7831 5.82261 10.7375L3.36511 7.7875C3.33578 7.75233 3.29908 7.72404 3.25761 7.70462C3.21613 7.6852 3.1709 7.67514 3.12511 7.67514C3.07931 7.67514 3.03408 7.6852 2.99261 7.70462C2.95113 7.72404 2.91444 7.75233 2.88511 7.7875L0.427608 10.7375C0.389605 10.7831 0.365388 10.8386 0.357792 10.8975C0.350196 10.9564 0.359537 11.0163 0.384719 11.07C0.409902 11.1238 0.449884 11.1693 0.499984 11.2012C0.550084 11.233 0.608228 11.25 0.667608 11.25Z" fill="black"/>
<path fill-rule="evenodd" clip-rule="evenodd" d="M10 3.75C8.06001 3.75 6.32501 4.63375 5.17876 6.0225C5.12758 6.08884 5.06357 6.14421 4.99056 6.18533C4.91755 6.22644 4.83701 6.25244 4.75375 6.26181C4.67048 6.27117 4.58618 6.26369 4.50586 6.23982C4.42554 6.21595 4.35084 6.17617 4.28621 6.12285C4.22157 6.06953 4.16831 6.00376 4.1296 5.92944C4.0909 5.85513 4.06753 5.77379 4.06088 5.69026C4.05424 5.60673 4.06446 5.52272 4.09094 5.44323C4.11742 5.36373 4.15961 5.29037 4.21501 5.2275C5.13025 4.11941 6.3445 3.29751 7.71334 2.85957C9.08218 2.42163 10.548 2.38606 11.9365 2.75711C13.3249 3.12816 14.5776 3.89021 15.5455 4.95261C16.5134 6.01501 17.1558 7.33307 17.3963 8.75H16.125C15.8364 7.33851 15.0692 6.06999 13.9532 5.15893C12.8371 4.24787 11.4407 3.75018 10 3.75ZM3.87501 11.25C4.11165 12.4058 4.67045 13.471 5.48686 14.3227C6.30326 15.1743 7.34396 15.7776 8.48871 16.0629C9.63347 16.3481 10.8356 16.3036 11.9561 15.9346C13.0767 15.5656 14.07 14.8871 14.8213 13.9775C14.8724 13.9112 14.9364 13.8558 15.0095 13.8147C15.0825 13.7736 15.163 13.7476 15.2463 13.7382C15.3295 13.7288 15.4138 13.7363 15.4942 13.7602C15.5745 13.7841 15.6492 13.8238 15.7138 13.8772C15.7785 13.9305 15.8317 13.9962 15.8704 14.0706C15.9091 14.1449 15.9325 14.2262 15.9391 14.3097C15.9458 14.3933 15.9356 14.4773 15.9091 14.5568C15.8826 14.6363 15.8404 14.7096 15.785 14.7725C14.8698 15.8806 13.6555 16.7025 12.2867 17.1404C10.9178 17.5784 9.45201 17.6139 8.06354 17.2429C6.67507 16.8718 5.42239 16.1098 4.4545 15.0474C3.4866 13.985 2.84422 12.6669 2.60376 11.25H3.87501Z" fill="black"/>
</svg>
