<svg width="15" height="14" viewBox="0 0 15 14" fill="none" xmlns="http://www.w3.org/2000/svg">
<path d="M6.62538 9.7475L2.42888 4.95075C1.93363 4.38638 2.33613 3.5 3.08775 3.5H11.4808C11.649 3.49986 11.8137 3.5482 11.9551 3.63925C12.0965 3.73029 12.2087 3.86018 12.2783 4.01336C12.3478 4.16653 12.3717 4.3365 12.3471 4.50291C12.3225 4.66931 12.2505 4.8251 12.1396 4.95163L7.94313 9.74663C7.861 9.84061 7.75971 9.91593 7.64607 9.96755C7.53243 10.0192 7.40906 10.0459 7.28425 10.0459C7.15944 10.0459 7.03607 10.0192 6.92243 9.96755C6.80879 9.91593 6.7075 9.84061 6.62538 9.74663V9.7475Z" fill="#1E1E1E"/>
</svg>
