<svg width="25" height="20" viewBox="0 0 25 20" fill="none" xmlns="http://www.w3.org/2000/svg">
<path d="M21.875 8.44974C21.3234 8.20759 20.7274 8.08281 20.125 8.08333H4.375C3.77262 8.08275 3.17669 8.20734 2.625 8.44919C1.84527 8.79018 1.18176 9.35094 0.715583 10.0629C0.249404 10.7749 0.000745088 11.6073 0 12.4583V18.5833C0 18.8154 0.0921872 19.038 0.256282 19.2021C0.420376 19.3661 0.642936 19.4583 0.875 19.4583C1.10706 19.4583 1.32962 19.3661 1.49372 19.2021C1.65781 19.038 1.75 18.8154 1.75 18.5833V18.1458C1.75142 18.0302 1.79797 17.9198 1.87971 17.838C1.96145 17.7563 2.07191 17.7098 2.1875 17.7083H22.3125C22.4281 17.7098 22.5385 17.7563 22.6203 17.838C22.702 17.9198 22.7486 18.0302 22.75 18.1458V18.5833C22.75 18.8154 22.8422 19.038 23.0063 19.2021C23.1704 19.3661 23.3929 19.4583 23.625 19.4583C23.8571 19.4583 24.0796 19.3661 24.2437 19.2021C24.4078 19.038 24.5 18.8154 24.5 18.5833V12.4583C24.4991 11.6074 24.2504 10.7751 23.7843 10.0632C23.3181 9.35136 22.6546 8.79069 21.875 8.44974V8.44974ZM18.8125 0.208334H5.6875C4.87527 0.208334 4.09632 0.530989 3.52199 1.10532C2.94766 1.67965 2.625 2.45861 2.625 3.27083V7.20833C2.62502 7.24223 2.63293 7.27566 2.64808 7.30598C2.66324 7.3363 2.68524 7.36269 2.71234 7.38305C2.73944 7.40342 2.7709 7.4172 2.80424 7.42333C2.83758 7.42945 2.87189 7.42774 2.90445 7.41833C3.38213 7.27862 3.87732 7.20791 4.375 7.20833H4.60633C4.66032 7.20868 4.71253 7.18904 4.75292 7.1532C4.7933 7.11736 4.819 7.06785 4.82508 7.01419C4.8728 6.58664 5.07635 6.19165 5.39683 5.90465C5.71732 5.61766 6.13229 5.45877 6.5625 5.45833H9.625C10.0555 5.45837 10.4709 5.61707 10.7917 5.90411C11.1125 6.19114 11.3163 6.58636 11.3641 7.01419C11.3701 7.06785 11.3958 7.11736 11.4362 7.1532C11.4766 7.18904 11.5288 7.20868 11.5828 7.20833H12.9205C12.9745 7.20868 13.0267 7.18904 13.0671 7.1532C13.1074 7.11736 13.1331 7.06785 13.1392 7.01419C13.1869 6.58692 13.3902 6.19216 13.7104 5.9052C14.0305 5.61824 14.4451 5.45917 14.875 5.45833H17.9375C18.368 5.45837 18.7834 5.61707 19.1042 5.90411C19.425 6.19114 19.6288 6.58636 19.6766 7.01419C19.6826 7.06785 19.7083 7.11736 19.7487 7.1532C19.7891 7.18904 19.8413 7.20868 19.8953 7.20833H20.125C20.6227 7.20809 21.1179 7.27899 21.5955 7.41888C21.6282 7.4283 21.6625 7.43 21.6959 7.42385C21.7293 7.4177 21.7608 7.40386 21.7879 7.38343C21.815 7.36301 21.837 7.33655 21.8521 7.30616C21.8672 7.27577 21.8751 7.24228 21.875 7.20833V3.27083C21.875 2.45861 21.5523 1.67965 20.978 1.10532C20.4037 0.530989 19.6247 0.208334 18.8125 0.208334Z" fill="white"/>
</svg>
