<svg width="17" height="16" viewBox="0 0 17 16" fill="none" xmlns="http://www.w3.org/2000/svg">
<path d="M3.28418 14C3.28418 14 2.28418 14 2.28418 13C2.28418 12 3.28418 9 8.28418 9C13.2842 9 14.2842 12 14.2842 13C14.2842 14 13.2842 14 13.2842 14H3.28418ZM8.28418 8C9.07983 8 9.84289 7.68393 10.4055 7.12132C10.9681 6.55871 11.2842 5.79565 11.2842 5C11.2842 4.20435 10.9681 3.44129 10.4055 2.87868C9.84289 2.31607 9.07983 2 8.28418 2C7.48853 2 6.72547 2.31607 6.16286 2.87868C5.60025 3.44129 5.28418 4.20435 5.28418 5C5.28418 5.79565 5.60025 6.55871 6.16286 7.12132C6.72547 7.68393 7.48853 8 8.28418 8Z" fill="black"/>
</svg>
