<svg width="29" height="30" viewBox="0 0 29 30" fill="none" xmlns="http://www.w3.org/2000/svg">
<g clip-path="url(#clip0_4_396)">
<path d="M13.3079 17.2539C13.5095 17.0744 13.6614 17.3589 13.6614 17.3589L15.0259 19.4194L17.2163 24.3001C17.8792 23.6372 17.8433 23.4632 17.8046 23.1925L16.3794 14.5304C16.3794 14.5304 17.9013 12.7378 19.3625 11.2766C20.0392 10.5999 21.1938 8.79348 20.7712 8.37087C20.3486 7.94827 18.52 9.12494 17.8654 9.77956C16.4788 11.1662 14.6116 12.7627 14.6116 12.7627L5.94955 11.3374C5.61533 11.2794 5.47722 11.2905 4.84193 11.9257L9.72263 14.1161L11.7804 15.4778C11.7804 15.4778 12.0649 15.6298 11.8854 15.8314C11.7058 16.033 9.9436 17.7069 9.2282 18.8145C9.13153 18.9609 9.02933 18.8753 8.89122 18.8863L6.55169 18.3588C6.45226 18.3643 6.281 18.4913 6.281 18.4913L5.74239 18.9747L8.06258 20.411L7.51015 21.6264L8.72549 21.0739L10.1618 23.3941L10.6452 22.8555C10.6479 22.8583 10.775 22.687 10.7805 22.5876L10.253 20.2481C10.264 20.11 10.1784 20.0078 10.3248 19.9111C11.4269 19.1902 13.1062 17.4334 13.3079 17.2539Z" fill="#1E1E1E"/>
</g>
<defs>
<clipPath id="clip0_4_396">
<rect width="20" height="20" fill="white" transform="translate(14.1421 0.857864) rotate(45)"/>
</clipPath>
</defs>
</svg>
