<svg width="31" height="31" viewBox="0 0 31 31" fill="none" xmlns="http://www.w3.org/2000/svg">
<g clip-path="url(#clip0_4_380)">
<path d="M13.9618 18.5941C14.2643 18.3247 14.4921 18.7515 14.4921 18.7515L16.5389 21.8423L19.8244 29.1634C20.8188 28.169 20.765 27.908 20.7069 27.5019L18.5691 14.5089C18.5691 14.5089 20.852 11.8199 23.0437 9.62817C24.0588 8.61308 25.7907 5.90343 25.1568 5.26952C24.5228 4.6356 21.78 6.40061 20.7981 7.38255C18.7182 9.46244 15.9174 11.8572 15.9174 11.8572L2.92432 9.71931C2.42299 9.63231 2.21583 9.64888 1.2629 10.6018L8.58394 13.8874L11.6706 15.93C11.6706 15.93 12.0974 16.1579 11.8281 16.4603C11.5588 16.7628 8.91539 19.2735 7.8423 20.935C7.69729 21.1546 7.54399 21.0261 7.33683 21.0427L3.82754 20.2513C3.67838 20.2596 3.4215 20.4502 3.4215 20.4502L2.61358 21.1753L6.09387 23.3297L5.26523 25.1527L7.08824 24.3241L9.2427 27.8044L9.96777 26.9965C9.97191 27.0006 10.1625 26.7437 10.1708 26.5946L9.37943 23.0853C9.396 22.8781 9.26756 22.7248 9.48715 22.5798C11.1403 21.4984 13.6594 18.8634 13.9618 18.5941Z" fill="white"/>
</g>
<defs>
<clipPath id="clip0_4_380">
<rect width="30" height="30" fill="white" transform="translate(30.2131 0.213204) rotate(90)"/>
</clipPath>
</defs>
</svg>
