<svg width="20" height="24" viewBox="0 0 20 24" fill="none" xmlns="http://www.w3.org/2000/svg">
<path d="M0.916748 16.9167C0.916748 19.1742 2.74841 21 5.00008 21L3.25008 22.75V23.3333H17.2501V22.75L15.5001 21C17.7576 21 19.5834 19.1742 19.5834 16.9167V4.66667C19.5834 0.583333 15.4067 0 10.2501 0C5.09341 0 0.916748 0.583333 0.916748 4.66667V16.9167ZM10.2501 18.6667C8.96091 18.6667 7.91675 17.6225 7.91675 16.3333C7.91675 15.0442 8.96091 14 10.2501 14C11.5392 14 12.5834 15.0442 12.5834 16.3333C12.5834 17.6225 11.5392 18.6667 10.2501 18.6667ZM17.2501 10.5H3.25008V4.66667H17.2501V10.5Z" fill="white"/>
</svg>
